# This file uses centimeters as units for non-parametric coordinates.

mtllib doorwaywall.mtl
g default
v -2.666213 -0.134300 31.642929
v -1.958815 -0.134300 32.119405
v -1.958815 22.000000 32.119405
v -2.666213 22.000000 31.642929
v 0.983949 -0.134300 31.642929
v 0.276550 -0.134300 32.119405
v 0.276550 22.000000 32.119405
v 0.983949 22.000000 31.642929
v -1.958815 34.134300 32.119405
v -2.666213 33.868973 31.642929
v -1.951305 34.134300 13.150488
v -2.666213 33.871820 13.095667
v 0.983949 33.868973 31.642929
v 0.276550 34.134300 32.119405
v 0.269040 34.134300 13.150488
v 0.983949 33.871820 13.095667
v -1.958815 34.134300 -32.119405
v -2.666213 33.868973 -31.642929
v -1.958815 22.000000 -32.119405
v -2.666213 22.000000 -31.642929
v 0.983949 33.868973 -31.642929
v 0.276550 34.134300 -32.119405
v 0.276550 22.000000 -32.119405
v 0.983949 22.000000 -31.642929
v 0.983949 -0.134300 -31.642929
v 0.276550 -0.134300 -32.119405
v -1.958815 -0.134300 -32.119405
v -2.666213 -0.134300 -31.642929
v -1.958815 34.134300 0.117360
v -2.666213 33.868973 0.117360
v -1.958815 34.134300 -6.245143
v -2.666213 33.868973 -6.245143
v 0.983949 33.868973 0.117360
v 0.276550 34.134300 0.117360
v 0.276550 34.134300 -6.245143
v 0.983949 33.868973 -6.245143
v 0.983949 24.105031 0.124489
v 0.276550 23.839699 0.124488
v 0.983949 24.105030 -5.744855
v 0.276550 23.839699 -5.744855
v -2.666213 24.105031 0.124487
v -1.958815 23.839699 0.124487
v -2.666213 24.105030 6.163520
v -1.958815 23.839699 6.163520
v 0.983949 33.871820 -12.910585
v 0.269040 34.134300 -12.965406
v -1.951305 34.134300 -12.965406
v -2.666213 33.871820 -12.910585
v -2.666213 20.660328 -10.696384
v -1.958815 20.394997 -10.431052
v -2.666213 24.105030 -5.744857
v -1.958815 23.839699 -5.744857
v 0.276550 -0.134300 -10.431052
v 0.983949 -0.134300 -10.696384
v 0.983949 20.660332 -10.696382
v 0.276549 20.394997 -10.431049
v -2.666213 -0.134300 -10.696384
v -1.958815 -0.134300 -10.431052
v -1.958815 34.134300 6.663809
v -2.666213 33.868973 6.663809
v 0.983949 33.868973 6.663809
v 0.276550 34.134300 6.663809
v 0.983949 20.660328 10.881462
v 0.276550 20.394997 10.616128
v 0.983949 24.105030 6.163520
v 0.276550 23.839699 6.163520
v 0.276550 -0.134300 10.616128
v 0.983949 -0.134300 10.881462
v -1.958815 -0.134300 10.616128
v -2.666213 -0.134300 10.881462
v -2.666213 20.660328 10.881462
v -1.958815 20.394997 10.616128
v -1.958815 -0.134300 10.881462
v -1.958815 -0.134300 31.642926
v 0.276549 -0.134300 31.642926
v 0.276549 -0.134300 10.881462
v -1.958815 -0.134300 -31.642929
v 0.276550 -0.134300 -31.642938
v -1.958815 -0.134300 -10.696385
v 0.276550 -0.134300 -10.696384
vt 0.596474 0.991981
vt 0.589241 0.776431
vt 0.660831 0.700386
vt 0.692847 0.992044
vt 0.504479 0.991981
vt 0.504376 0.776431
vt 0.760953 0.729961
vt 0.760953 0.991981
vt 0.409825 0.991981
vt 0.417058 0.776431
vt 0.660831 0.241322
vt 0.760953 0.241322
vt 0.316827 0.992044
vt 0.348843 0.700386
vt 0.251399 0.729961
vt 0.251399 0.991981
vt 0.251399 0.241322
vt 0.348843 0.241322
vt 0.913682 0.014253
vt 0.882911 0.306045
vt 0.810994 0.230305
vt 0.817308 0.014727
vt 0.982904 0.276043
vt 0.981787 0.014026
vt 0.726132 0.230667
vt 0.725315 0.015119
vt 0.984988 0.764677
vt 0.884869 0.765104
vt 0.638815 0.231040
vt 0.630663 0.015523
vt 0.570924 0.307375
vt 0.537666 0.015857
vt 0.473355 0.278216
vt 0.472238 0.016199
vt 0.572882 0.766435
vt 0.475439 0.766850
vt 0.924835 0.979689
vt 0.924835 0.952018
vt 0.925559 0.952018
vt 0.905939 0.979689
vt 0.905939 0.952018
vt 0.924835 0.864579
vt 0.925559 0.864579
vt 0.905215 0.952018
vt 0.905939 0.864579
vt 0.924835 0.836908
vt 0.905215 0.864579
vt 0.905939 0.836908
vt 0.968191 0.979689
vt 0.968191 0.952018
vt 0.968915 0.952018
vt 0.949800 0.979689
vt 0.949800 0.952018
vt 0.968191 0.864579
vt 0.968915 0.864579
vt 0.949076 0.952018
vt 0.949800 0.864579
vt 0.968191 0.836908
vt 0.949076 0.864579
vt 0.949800 0.836908
vt 0.037547 0.250885
vt 0.036492 0.210581
vt 0.055316 0.210154
vt 0.055533 0.250885
vt 0.036492 0.083221
vt 0.055316 0.083649
vt 0.081098 0.210581
vt 0.081098 0.250885
vt 0.037547 0.042917
vt 0.055533 0.042917
vt 0.081098 0.083221
vt 0.107119 0.210581
vt 0.107119 0.250885
vt 0.081098 0.042917
vt 0.107119 0.083221
vt 0.132409 0.210581
vt 0.132409 0.250885
vt 0.107119 0.042917
vt 0.132409 0.083221
vt 0.159120 0.210154
vt 0.158902 0.250885
vt 0.132409 0.042917
vt 0.159120 0.083649
vt 0.178679 0.210581
vt 0.177624 0.250885
vt 0.158902 0.042917
vt 0.178679 0.083221
vt 0.177624 0.042917
vt 0.415815 0.446513
vt 0.415815 0.474184
vt 0.399798 0.474184
vt 0.399798 0.446513
vt 0.432295 0.446513
vt 0.432295 0.474184
vt 0.415815 0.561623
vt 0.399798 0.561623
vt 0.387010 0.474184
vt 0.386286 0.446513
vt 0.445170 0.446513
vt 0.444446 0.474184
vt 0.432295 0.561623
vt 0.415815 0.589294
vt 0.399798 0.589294
vt 0.387010 0.561623
vt 0.444446 0.561623
vt 0.432295 0.589294
vt 0.386286 0.589294
vt 0.445170 0.589294
vt 0.020304 0.292134
vt 0.060608 0.292134
vt 0.060608 0.426461
vt 0.020304 0.426461
vt 0.187968 0.292134
vt 0.187968 0.426461
vt 0.060608 0.500101
vt 0.020304 0.498491
vt 0.228271 0.292134
vt 0.228271 0.426461
vt 0.187968 0.500101
vt 0.228271 0.498491
vt 0.219516 0.011895
vt 0.263748 0.010127
vt 0.263748 0.090945
vt 0.219516 0.090945
vt 0.403520 0.010127
vt 0.403520 0.090945
vt 0.263748 0.238363
vt 0.219516 0.238363
vt 0.447751 0.011895
vt 0.447751 0.090945
vt 0.403520 0.238363
vt 0.447751 0.238363
vt 0.226406 0.706981
vt 0.228016 0.747285
vt 0.101819 0.747285
vt 0.101819 0.706981
vt 0.101819 0.579621
vt 0.226406 0.579621
vt 0.101819 0.539318
vt 0.228016 0.539318
vt 0.023727 0.823129
vt 0.022116 0.782825
vt 0.148314 0.782825
vt 0.148314 0.823129
vt 0.148314 0.950489
vt 0.023727 0.950489
vt 0.148314 0.990793
vt 0.022116 0.990793
vn 0.000000 -1.000000 0.000000
vn 0.000000 -1.000000 0.000000
vn 0.000000 -1.000000 0.000000
vn 0.000000 -1.000000 0.000000
vn 0.000000 -1.000000 0.000000
vn 0.000000 -1.000000 0.000000
vn -0.558652 0.000000 0.829402
vn -0.558652 0.000000 0.829402
vn -0.558652 0.000000 0.829402
vn -0.558652 0.000000 0.829402
vn -0.558652 0.000000 0.829402
vn -0.558652 0.000000 0.829402
vn 0.558652 0.000000 0.829402
vn 0.558652 0.000000 0.829402
vn 0.558652 0.000000 0.829402
vn 0.558652 0.000000 0.829402
vn 0.558652 0.000000 0.829402
vn 0.558652 0.000000 0.829402
vn -0.347909 0.937528 0.000002
vn -0.347909 0.937528 0.000002
vn -0.347909 0.937528 0.000000
vn -0.347909 0.937528 -0.000000
vn -0.349546 0.936919 -0.000002
vn -0.349554 0.936916 -0.000002
vn 0.347909 0.937528 0.000002
vn 0.347909 0.937528 0.000002
vn 0.347909 0.937528 -0.000000
vn 0.347909 0.937528 0.000000
vn 0.349554 0.936916 -0.000002
vn 0.349546 0.936919 -0.000002
vn -0.347909 0.937528 -0.000002
vn -0.347909 0.937528 -0.000002
vn -0.347909 0.937528 0.000000
vn -0.347909 0.937528 -0.000000
vn -0.558652 0.000000 -0.829402
vn -0.558652 0.000000 -0.829402
vn -0.558652 0.000000 -0.829402
vn -0.558652 0.000000 -0.829402
vn -0.558652 0.000000 -0.829402
vn -0.558652 0.000000 -0.829402
vn 0.347909 0.937528 -0.000002
vn 0.347909 0.937528 -0.000002
vn 0.347909 0.937528 -0.000000
vn 0.347909 0.937528 0.000000
vn 0.558652 0.000000 -0.829402
vn 0.558652 0.000000 -0.829402
vn 0.558652 0.000000 -0.829402
vn 0.558652 0.000000 -0.829402
vn 0.558652 0.000000 -0.829402
vn 0.558652 0.000000 -0.829402
vn -0.351184 0.936307 0.000000
vn -0.351184 0.936307 0.000000
vn -0.349494 0.936939 0.000002
vn -0.349502 0.936936 0.000002
vn 0.351184 0.936307 0.000000
vn 0.351184 0.936307 0.000000
vn 0.349502 0.936936 0.000002
vn 0.349494 0.936939 0.000002
vn 0.351190 -0.936304 -0.000000
vn 0.351190 -0.936304 0.000000
vn 0.383080 -0.878324 0.286000
vn 0.382780 -0.880146 0.280755
vn 0.382858 -0.879674 -0.282123
vn 0.383174 -0.877729 -0.287697
vn 0.382673 -0.751599 0.537271
vn 0.382673 -0.751599 0.537271
vn -0.351190 -0.936304 0.000000
vn -0.351190 -0.936304 0.000000
vn -0.383174 -0.877729 -0.287697
vn -0.382858 -0.879674 -0.282123
vn -0.382779 -0.880146 0.280755
vn -0.383079 -0.878325 0.286000
vn -0.381354 -0.739098 -0.555250
vn -0.381354 -0.739099 -0.555250
vn -0.382670 -0.751600 0.537272
vn -0.382670 -0.751600 0.537272
vn -0.351190 0.000000 0.936304
vn -0.351190 0.000000 0.936304
vn -0.351190 0.000000 0.936304
vn -0.351190 0.000000 0.936304
vn 0.351190 -0.000000 0.936304
vn 0.351190 -0.000000 0.936304
vn 0.351190 -0.000000 0.936304
vn 0.351190 -0.000000 0.936304
vn 0.381354 -0.739098 -0.555250
vn 0.381354 -0.739098 -0.555250
vn 0.351191 0.000000 -0.936304
vn 0.351191 0.000000 -0.936304
vn 0.351191 0.000000 -0.936304
vn 0.351191 0.000000 -0.936304
vn -0.351191 0.000000 -0.936304
vn -0.351191 0.000000 -0.936304
vn -0.351191 0.000000 -0.936304
vn -0.351191 0.000000 -0.936304
vn 0.000000 0.000000 1.000000
vn 0.000000 0.000000 1.000000
vn 0.000000 0.000000 1.000000
vn 0.000000 0.000000 1.000000
vn 0.000000 1.000000 -0.000000
vn 0.000000 1.000000 -0.000000
vn 0.000000 1.000000 -0.000000
vn 0.000000 1.000000 -0.000000
vn 0.000000 0.000000 -1.000000
vn 0.000000 0.000000 -1.000000
vn 0.000000 0.000000 -1.000000
vn 0.000000 0.000000 -1.000000
vn 1.000000 0.000000 0.000000
vn 1.000000 0.000000 0.000000
vn 1.000000 0.000000 0.000000
vn 1.000000 0.000000 0.000000
vn -1.000000 0.000000 0.000000
vn -1.000000 0.000000 0.000000
vn -1.000000 -0.000000 0.000000
vn -1.000000 -0.000000 0.000000
vn 0.000000 0.000000 1.000000
vn 0.000000 0.000000 1.000000
vn 0.000000 0.000000 -1.000000
vn 0.000000 0.000000 -1.000000
vn 0.000000 1.000000 0.000000
vn 0.000000 1.000000 0.000000
vn 0.000000 1.000000 0.000000
vn 0.000000 1.000000 0.000000
vn 1.000000 0.000000 0.000000
vn 1.000000 0.000000 0.000000
vn 1.000000 0.000000 0.000000
vn 1.000000 0.000000 0.000000
vn -1.000000 0.000000 0.000000
vn -1.000000 0.000000 0.000000
vn -1.000000 0.000000 0.000000
vn -1.000000 0.000000 0.000000
vn 1.000000 0.000000 0.000000
vn 1.000000 0.000000 0.000000
vn 1.000000 0.000000 0.000000
vn 1.000000 0.000000 0.000000
vn 0.000000 1.000000 0.000000
vn 0.000000 1.000000 0.000000
vn -1.000000 0.000000 0.000000
vn -1.000000 0.000000 0.000000
vn -1.000000 0.000000 0.000000
vn -1.000000 0.000000 0.000000
vn 0.000000 1.000000 -0.000000
vn 0.000000 1.000000 -0.000000
vn 1.000000 0.000000 0.000000
vn 1.000000 0.000000 0.000000
vn 1.000000 0.000000 0.000000
vn 1.000000 0.000000 0.000000
vn -1.000000 0.000000 0.000000
vn -1.000000 0.000000 0.000000
vn -1.000000 0.000000 0.000000
vn -1.000000 0.000000 0.000000
vn 0.000000 1.000000 0.000000
vn 0.000000 1.000000 0.000000
vn 1.000000 0.000000 0.000000
vn 1.000000 0.000000 0.000000
vn -1.000000 -0.000000 0.000000
vn -1.000000 -0.000000 0.000000
vn -0.000001 -0.000000 1.000000
vn -0.000001 -0.000000 1.000000
vn -0.000001 -0.000000 1.000000
vn -0.000001 -0.000000 1.000000
vn -0.000000 -0.950659 0.310239
vn -0.000001 -0.805735 0.592276
vn -0.000001 -0.805735 0.592276
vn -0.000000 -0.950659 0.310239
vn -0.000000 -1.000000 -0.000000
vn -0.000000 -1.000000 0.000000
vn 0.000000 -0.790937 -0.611898
vn 0.000000 -0.950100 -0.311945
vn 0.000000 -0.950100 -0.311945
vn 0.000000 -0.790937 -0.611898
vn 0.000000 0.000000 -1.000000
vn 0.000000 0.000000 -1.000000
vn 0.000000 0.000000 -1.000000
vn 0.000000 0.000000 -1.000000
vn 0.000000 -1.000000 0.000000
vn 0.000000 -1.000000 0.000000
vn 0.000000 -1.000000 0.000005
vn 0.000000 -1.000000 0.000000
vn 0.000000 -1.000000 0.000005
vn 0.000000 -1.000000 0.000000
vn 0.000000 -1.000000 0.000000
vn 0.000000 -1.000000 0.000000
vn 0.000000 -1.000000 0.000000
vn 0.000000 -1.000000 0.000000
vn 0.000000 -1.000000 0.000000
vn 0.000000 -1.000000 0.000000
vn 0.000000 -1.000000 0.000000
vn 0.000000 -1.000000 0.000000
vn 0.000000 -1.000000 0.000000
vn 0.000000 -1.000000 0.000000
vn 0.000000 -1.000000 0.000000
vn 0.000000 -1.000000 0.000000
s 1
g pCube1
usemtl initialShadingGroup
f 57/37/1 79/38/2 58/39/3
s 2
f 1/49/4 74/50/5 2/51/6
s 3
f 1/109/7 2/110/8 3/111/9 4/112/10
f 4/112/10 3/111/9 9/115/11 10/116/12
s 4
f 6/113/13 5/117/14 8/118/15 7/114/16
f 7/114/16 8/118/15 13/120/17 14/119/18
s 5
f 10/61/19 9/62/20 11/63/21 12/64/22
f 12/64/22 11/63/21 59/67/23 60/68/24
s 6
f 14/65/25 13/69/26 16/70/27 15/66/28
f 15/66/28 16/70/27 61/74/29 62/71/30
s 5
f 17/84/31 18/85/32 48/81/33 47/80/34
s 8
f 18/121/35 17/122/36 19/123/37 20/124/38
f 20/124/38 19/123/37 27/127/39 28/128/40
s 6
f 21/88/41 22/87/42 46/83/43 45/86/44
s 10
f 22/125/45 21/129/46 24/130/47 23/126/48
f 23/126/48 24/130/47 25/132/49 26/131/50
s 5
f 29/72/51 30/73/52 60/68/24 59/67/23
f 30/73/52 29/72/51 31/76/53 32/77/54
f 32/77/54 31/76/53 47/80/34 48/81/33
s 6
f 33/78/55 34/75/56 62/71/30 61/74/29
f 34/75/56 33/78/55 36/82/57 35/79/58
f 35/79/58 36/82/57 45/86/44 46/83/43
s 11
f 37/89/59 38/90/60 40/91/61 39/92/62
f 38/90/60 37/89/59 65/93/63 66/94/64
f 39/92/62 40/91/61 56/97/65 55/98/66
s 12
f 41/102/67 42/95/68 44/101/69 43/106/70
f 42/95/68 41/102/67 51/103/71 52/96/72
f 43/106/70 44/101/69 72/105/73 71/108/74
f 49/107/75 50/104/76 52/96/72 51/103/71
s off
f 50/133/77 49/134/78 57/135/79 58/136/80
f 53/137/81 54/139/82 55/140/83 56/138/84
s 11
f 63/99/85 64/100/86 66/94/64 65/93/63
s off
f 64/141/87 63/142/88 68/143/89 67/144/90
f 69/145/91 70/147/92 71/148/93 72/146/94
s 13
f 3/111/95 7/114/96 14/119/97 9/115/98
s 14
f 31/76/99 35/79/100 46/83/101 47/80/102
s 15
f 17/122/103 22/125/104 23/126/105 19/123/106
s 16
f 36/1/107 39/2/108 55/3/109 45/4/110
s 17
f 48/19/111 49/20/112 51/21/113 32/22/114
s 13
f 3/111/95 2/110/115 6/113/116 7/114/96
s 15
f 19/123/106 23/126/105 26/131/117 27/127/118
s 14
f 11/63/119 15/66/120 62/71/121 59/67/122
s 16
f 16/13/123 63/14/124 65/10/125 61/9/126
s 17
f 60/30/127 43/29/128 71/31/129 12/32/130
s 16
f 55/3/109 54/11/131 25/12/132 24/7/133
f 45/4/110 55/3/109 24/7/133 21/8/134
s 14
f 47/80/102 46/83/101 22/87/135 17/84/136
s 17
f 20/23/137 49/20/112 48/19/111 18/24/138
f 20/23/137 28/27/139 57/28/140 49/20/112
s 14
f 9/62/141 14/65/142 15/66/120 11/63/119
s 16
f 8/15/143 63/14/124 16/13/123 13/16/144
f 8/15/143 5/17/145 68/18/146 63/14/124
s 17
f 71/31/129 70/35/147 1/36/148 4/33/149
f 12/32/130 71/31/129 4/33/149 10/34/150
s 14
f 29/72/151 34/75/152 35/79/100 31/76/99
s 16
f 33/5/153 37/6/154 39/2/108 36/1/107
s 17
f 32/22/114 51/21/113 41/25/155 30/26/156
s 16
f 61/9/126 65/10/125 37/6/154 33/5/153
s 14
f 59/67/122 62/71/121 34/75/152 29/72/151
s 17
f 30/26/156 41/25/155 43/29/128 60/30/127
s off
f 53/137/157 56/138/158 50/133/159 58/136/160
s 21
f 52/96/161 50/104/162 56/97/163 40/91/164
f 40/91/164 38/90/165 42/95/166 52/96/161
f 72/105/167 44/101/168 66/94/169 64/100/170
f 44/101/168 42/95/166 38/90/165 66/94/169
s off
f 64/141/171 67/144/172 69/145/173 72/146/174
s 2
f 70/52/175 73/53/176 74/50/5 1/49/4
f 70/52/175 69/56/177 73/53/176
f 76/57/178 67/59/179 68/60/180
f 75/54/181 76/57/178 68/60/180 5/58/182
f 6/55/183 75/54/181 5/58/182
f 2/51/6 74/50/5 75/54/181 6/55/183
f 74/50/5 73/53/176 76/57/178 75/54/181
f 73/53/176 69/56/177 67/59/179 76/57/178
s 1
f 53/43/184 80/42/185 54/46/186
f 58/39/3 79/38/2 80/42/185 53/43/184
f 28/40/187 27/44/188 77/41/189
f 78/45/190 77/41/189 27/44/188 26/47/191
f 25/48/192 78/45/190 26/47/191
f 28/40/187 77/41/189 79/38/2 57/37/1
f 80/42/185 79/38/2 77/41/189 78/45/190
f 54/46/186 80/42/185 78/45/190 25/48/192
